<?xml version="1.0" encoding="utf-8"?>
<!-- Generator: Adobe Illustrator 22.1.0, SVG Export Plug-In . SVG Version: 6.00 Build 0)  -->
<svg version="1.1" xmlns="http://www.w3.org/2000/svg" xmlns:xlink="http://www.w3.org/1999/xlink" x="0px" y="0px"
	 viewBox="0 0 2000 1500" style="enable-background:new 0 0 2000 1500;" xml:space="preserve">
<style type="text/css">
	.st0{fill:#FFFFFF;}
	.st1{fill:#FFD9D9;}
	.st2{fill:#FFA37B;}
	.st3{fill:#FFD2C2;}
	.st4{fill:#EF835E;}
	.st5{fill:#FF4D14;}
	.st6{fill:#FFA992;}
	.st7{fill:#E02F00;}
	.st8{fill:#CFCCE2;}
	.st9{fill:#282535;}
</style>
<g id="Backgroud">
	<rect class="st0" width="2000" height="1500"/>
</g>
<g id="Object">
	<g>
		<circle class="st1" cx="1293.4" cy="788.8" r="542.7"/>
		<g>
			<path class="st2" d="M174.7,1042.3c60.3,0,219,7.5,283.6-6.4c64.7-13.8,97.6-62.7,134.7-77.8C630.2,943,651.2,870,665,841.3
				c13.8-28.7,16.2-56.9,16.2-56.9s32.3-16.2,29.3-32.3s-30.1-73.6-18.6-80.2c11.5-6.6,62.3,35,67.1,94.2s21.6,177.7,21.6,183.7
				c0,6,183.2,4.2,207.2,28.1c24,24-21.9,57.2-24.6,59.9c23.4,23.4,26.7,65.5,3,89.2c26.9,57.5,3.1,82.4-1.8,87.2
				c25.1,40.3-6.4,66.5-54.6,86.4s-193.4,2.6-270.3-8.5c-76.9-11.2-156.5-11.3-259.5-26.4s-205.2-8.9-205.2-8.9
				c-18.6-18.6,32.7-44.7,17.8-87.5C177.5,1126.3,148,1053.5,174.7,1042.3z"/>
			<path class="st0" d="M342,1106h-61.9c0,0-6,94.4,0,94.4s55.7,2.8,60.5,0C345.4,1197.7,348.7,1112.6,342,1106z"/>
			<path class="st3" d="M805,1242.1c1.8-13.8,31.2-19.9,50.4-18.1s70.2,7,86.3-2.3s-92.4-14-92.4-14S795.2,1207,805,1242.1z"/>
			<path class="st3" d="M859.6,1127.6c-32.5,1.9-44.9,20.9-44.9,41.5c18.5-10.7,13.9-33.9,53.5-36
				C907.9,1131,859.6,1127.6,859.6,1127.6z"/>
			<path class="st3" d="M954.1,1043.7c-97.8,4.5-121.2-5.1-130.2,11.9c-9.1,17.1-4.5,35.8-4.5,35.8s5-22.7,42.3-27.9
				C899,1058.5,948.4,1056.2,954.1,1043.7z"/>
			<path class="st3" d="M826.9,965.8c24.9-27.4,59.3-18,78.5-14.8c19.2,3.2,80.9,19.6,82.9,37.3
				C939.2,968.8,842.7,976.8,826.9,965.8z"/>
			<path class="st3" d="M182.4,1045.5c25.1,7.2,74,13.7,149,13.7s156.5,4.4,199.7-13.7c43.2-18.1,9-40.1,68.5-55.2
				s75.6-156.1,75.6-176.1c0-20-28.7,65.2-54.4,90.9C595,930.8,574.4,970,516.4,1003C458.4,1035.9,257.5,994.3,182.4,1045.5z"/>
			<path class="st4" d="M760.6,711.3c6.1,60.1,4.9,219.2-6.3,246.9c-11.1,27.7-27.1,68.7-15.3,106.2c11.8,37.5,13.2,61.2-10.4,72.3
				c-23.6,11.1-27.8,90.4-87.6,100.1s-143.9-9-226.6,0s-232.8,20.9-232.8,20.9s292.1,7.3,338.1,20.2c46,12.9,117.9,4.2,192.2,19.5
				s192.5,11.8,223.1,0s57.7-55.6,50.7-55.6c-7,0-32.7,32-77.1,27.1c-44.5-4.9-99.6-17.7-99.6-36.7c0-18.9,27.3-24.5,57.9-21
				s108.6,11.1,122.9-0.5s-8.2-49.5-8.2-49.5s-0.1,30.6-30,26.4c-29.9-4.2-134.7-5.9-139.7-18.2c-5-12.3,11.8-44.3,26.4-44.3
				c14.6,0,130.8,9.5,144.3,2.9c13.5-6.6,22.1-31.4,11.8-44.6c-10.2-13.2-10.4,6.2-33.1,9.7c-22.8,3.5-125,8.5-142.1-1.4
				c-17.1-9.9-4.2-35,11.4-44.1c15.7-9.1,102.2-3.9,132.1-3.9c29.9,0,36.3-33.8,36.3-41c0-7.3-41.5,17.4-110.9,6.4
				c-69.4-11.1-79.3-12.6-79.3-22.4c0-9.7,27.3-36.1,27.3-36.1l-51.4-8.3C788.3,848.9,783.3,749.9,760.6,711.3z"/>
			<path class="st3" d="M673.7,664.8c-5.4,3.1-14.2,34.9-10.9,51.2c3.4,16.3,17,66.8,17,71.6c0,4.7,28.1-3.7,26.1-30.9
				C703.9,729.5,673.7,664.8,673.7,664.8z"/>
			<path class="st5" d="M1293.4,1023.5c-5-29.7-85-59.5-104.1-48.4c-19.1,11-33,64.8,23.5,113.6c56.5,48.8,75.6,72.1,94.1,75.7
				c69.2-26.8,83.3-36.7,103.9-95.8c20.6-59.2-21.4-129-61.6-98.3S1293.4,1023.5,1293.4,1023.5z"/>
			<path class="st6" d="M1166.4,1050.2c-11.4-41,19.5-110.1,82.3-66.1c21.3,14.9,31.4,42.6,31.4,42.6
				C1211.4,946.8,1166.4,1006.7,1166.4,1050.2z"/>
			<path class="st7" d="M1397.1,972.4c16.3,46.9-45.8,142-109.5,159.4c-39-11-70-33.6-70-33.6c15.8,54.1,82.1,70.9,82.1,70.9
				C1374,1156.7,1491.9,1043.9,1397.1,972.4z"/>
			<path class="st5" d="M1330.1,529.4c54.3-19.9,84.8-15.9,149.6,0c64.9,15.9,257.9,49.3,302.6,4.6c0,136.4-10,260.3-62.9,280.3
				c-52.9,19.9-274.6,29.5-331.7-3.5S1302.9,630.7,1330.1,529.4z"/>
			<path class="st6" d="M1375.9,519.8c-9,46.9-9.3,229.3,18.8,294.5c-71.1-28.5-80.9-143-72.4-198.9c8.5-55.9,10.3-91.5,10.3-91.5
				L1375.9,519.8z"/>
			<path class="st7" d="M1735.1,569c0,42.6,6.9,179.2-17.9,204c-24.9,24.9-340.1,39.1-376.9-25.3c10.7,64,67.4,88.3,169.8,88.3
				c102.4,0,232.4,1.1,247.8-67.4s13.6-204.5,13.6-204.5L1735.1,569z"/>
			<path class="st0" d="M1434.9,820c-3.2,9.1-5.3,45.9,5.3,48.6c10.7,2.7,63.5,4.3,66.8-4.8c3.2-9.1,9.6-43.8,0-43.8
				S1434.9,820,1434.9,820z"/>
			<path class="st8" d="M1555,821.7c-5,9.1-8.3,45.9,8.3,48.6c16.5,2.7,98.4,4.3,103.3-4.8c5-9.1,14.9-43.8,0-43.8
				S1555,821.7,1555,821.7z"/>
			<g>
				<path class="st9" d="M1555,312c25.6,0,46.5-20.9,46.5-46.5S1580.7,219,1555,219s-46.5,20.9-46.5,46.5S1529.4,312,1555,312z
					 M1555,239c14.6,0,26.5,11.9,26.5,26.5S1569.6,292,1555,292s-26.5-11.9-26.5-26.5S1540.4,239,1555,239z"/>
				<path class="st9" d="M1791.3,552c-1-73.3-3.5-146.3-4.4-195.1c-0.5-27.2-11.2-52.8-30.2-71.9c-38.7-38.9-84-28.1-96.8-29.9
					c-5,0-9.3-3.6-10.3-8.6c-8.8-45.2-48.7-78-94.8-78c-46.1,0-86,32.8-94.8,78c-1,5-5.3,8.6-10.3,8.6h-25
					c-56.2,0-101.8,45.7-101.9,101.8c-0.1,3.6-1.8,77.3-2.5,161.9c-0.3,1.4-0.3,2.9,0,4.3c-0.5,71.6-0.2,150.3,2.5,200.4
					c3.2,57.9,40.5,102.8,103.2,107.4c-1.2,18.1-1.8,36.2,4.8,42.9c2.5,2.5,6.3,6.3,40.2,7.1c7.7,0.2,31.9,0.7,38.1-2.9
					c6.9-4,8.5-13.6,8.5-45.5c7.4,0.1,15,0.2,22.7,0.3c-1.5,14.1-3,35.9,8.6,42.6c2.4,1.3,7.7,4.4,53.8,5.3
					c0.1,226.7-0.3,207.2,0.3,223.8c0.6,18.9,0.6,30.8-7.7,39c-11.6,11.5-40.2,16-87.3,13.9c-75.3-3.4-131.5-4.5-171.6-4.9
					c43.8-23.1,85.6-59.2,96.3-107.7c18.5-84.2-74.6-138.9-138.7-39.1c-29.7-43.3-84.9-79.1-122.4-41.6c-16.4,16.4-23.1,35.9-20,58
					c6.9,49.8,63.1,100.8,104,130.2c-75.7-0.1-166.9-0.7-261.9-1.5c-3.4-7.4-8.2-14.3-14.6-20c12.7-11.1,21-27,22.2-43.7
					c1.2-17.5-5.3-34-18.2-47.1c13-9.9,20.5-25.8,19.2-42.8c-1.5-19-15.1-41.1-48.9-46.4c-58.5-9.2-107.9-14.3-166.4-15.7
					c-7.3-97.5,32.8-201.6-65.7-276.3c-23.4-17.7-41.8-22.4-54.8-13.8c-24.4,16.1-12.7,70.9-5.6,99.4
					c15.8,63.6-21.9,177.3-80.3,205.9c-27.4,13.4-45.5,27.6-60,39c-19.8,15.5-32.9,25.8-57.7,27.7c-34.9,2.7-278.8,8.5-281.2,8.6
					c-5.5,0.1-9.9,4.7-9.8,10.2c0.1,5.5,4.7,9.9,10.2,9.8c10.1-0.2,246.8-5.9,282.3-8.6c30.8-2.4,48.3-16.1,68.5-31.9
					c14.5-11.4,31-24.3,56.5-36.7c52.1-25.5,88.2-104.3,94.2-172.1c6.1-2.4,31.8-14,33.2-34.5c1.4-19.9-16.8-73-35.8-100.9
					c5.2,0,14.6,3.5,28.2,13.9c91.7,69.6,47.7,167.8,58.7,271.2c6.1,56.9-3.8,69.4-3.3,76.3c0.3,5.6,5.2,9.7,10.6,9.4
					c4.8-0.3,8.7-4,9.3-8.6c6.2-22.1,6.4-44.2,4.4-67.8c8.1,0.2,16.1,0.5,24,0.9c-10.7,10.4-15.8,23.3-15,37.9
					c1.3,22.8,18.6,33.9,32.5,39.5c-17.6,6.8-27.1,20-28.5,39.6c-1.3,19.3,6.1,35.7,23.6,47.2c-10.8,6-19.3,15.9-23.7,28.8
					c-455.1-4.9-442.2-6.1-446.1-5.2c1-38.1-1.1-42.7-4.6-46.3c-2.1-2.2-4.8-3.4-7.7-3.4c-2.6,0-7-0.2-12.2-0.4
					c-30.5-1.2-42.4-1-48.3,2.4c-5.4,3.1-6.9,9.3-8.1,21.3c-0.8,7.6-1.3,17.9-1.5,29c-0.3,18.7,0.3,44.2,3,54.4
					c2.5,9.2,8.3,10.5,11.5,10.5c1,0,5.4,0.4,9.3,0.7c32,2.9,46.2,3.4,52.5-2.4c4.3-4,3.6-6.9,4.2-19.3c0.5-10.2,0.9-19.3,1.2-27.3
					c0.8,0.2,1.7,0.4,2.7,0.4c3.6,0.1,209.3,3,441.3,5.4c0.7,12.8,6.1,23.1,16.5,30.7c-17.8,7.2-26.6,21.2-26.7,38.6
					c-0.3,38.3,39.7,55.3,77.2,61.7c-158,16.5-193.8,2.4-269.2-20.7c-111.9-34.2-101.6-28.7-186-28.4c-78.7,0.3-153.1,0.7-232.8-3.6
					c-5.5-0.3-10.2,3.9-10.5,9.5c-0.3,5.5,3.9,10.2,9.5,10.5c102.6,5.4,196,3.4,300.9,3.4c22.4,0,70.6,14.7,113.1,27.7
					c33.1,10.1,64.4,19.7,84.7,23c75.2,12.1,155.5,2,220.4-4.4c28.6-2.8,51.9-9.4,69.1-19.6c16.1-9.5,26.5-22.1,30-36.3
					c3.9-15.4-0.6-31.2-11.9-43.7c9.6-8.2,15.6-20.9,16.4-35.8c0.2-3.4,0.1-7-0.3-10.6c341.1,2.9,350-0.6,507.9,6.6
					c31.6,1.4,80.4,2,102.3-19.6c17.8-17.6,13.4-42.4,13.4-66.1V881c7.5,0,43.4,0.2,50.4-2.1c8.8-2.9,11.4-13.5,12.5-28.4
					c0.4-5.5,0.5-11.2,0.5-16.2c60.4-0.4,93.7-27,100.4-91.9c4.8-46.3,5.4-115.3,4.5-184.9C1791.9,555.7,1791.9,553.8,1791.3,552z
					 M697.1,760.3c-0.3,4.3-6.1,9.3-12.5,13.1c-0.2-12.1-1.6-23.5-4.1-33.9c-6.5-26.3-8.6-43.8-8.5-55.4
					C685.8,710.1,697.9,748.1,697.1,760.3z M334,1194.1c-10.1,0.3-30.2-1.6-38.8-2.4c-2.4-16.1-2.1-63.5,0.5-78.4
					c9.4-0.8,31.2,0.2,40.4,0.5C337.1,1130.9,334.8,1177.3,334,1194.1z M818.1,992.7c-1-17.4,13.3-29.1,29.6-34.6
					c32.3,2.5,65.1,6.5,102.8,12.4c19,3,31,13.5,32.1,28.2c1,13-6.7,24.9-18.8,29.4c-56.1-0.6-91.3-3.6-114-9.6
					C822.7,1011.4,818.6,1001,818.1,992.7z M822.2,1074.3c0.9-13.5,6.7-20.2,20.6-23.8c25-6.5,69.1-0.6,119.7-2.2
					c13.3,9.9,20.1,23.1,19.1,37.5c-1,14.5-9.9,28.1-22.8,35.2c-45.7,0.9-107.5-0.8-128.8-23.1
					C824.1,1091.7,821.5,1084,822.2,1074.3z M857.1,1133.2c24.3,6.3,54,8,83.8,8c6.1,0,12.2-0.1,18.3-0.2c4.7,2.5,8.6,5.8,11.6,9.7
					c-48.8-0.4-98.2-0.9-146.8-1.4C830.8,1137.5,843.1,1132.5,857.1,1133.2z M950.6,1282.6c-62.5,4.5-111.7-4.1-131.8-22.8
					c-6.6-6.2-9.8-13.2-9.7-21.4c0-6.9,2.1-11.8,6.5-15.6c11-9.6,33.9-9.1,42.5-8.1c23.8,4.4,57.3,7.5,104.8,10.8
					C984.1,1241.5,981.8,1266.6,950.6,1282.6z M979.9,1180.4c-0.7,12.3-6.3,21.5-15,25.2c-115.8-8-143.3-15-145.5-36.4
					c52.9,0.6,107,1.1,160,1.5C979.9,1174,980.1,1177.3,979.9,1180.4z M1171.8,1019.4c-2.2-15.8,2.5-29.2,14.3-41.1
					c8.2-8.2,17.8-11.3,29.3-9.3c28.9,5,59.8,39.2,70.1,60.9c3.6,7.5,14.2,7.6,17.9,0.3c21.3-41.4,65-78.4,97.6-45.7
					c30,30,22.1,116.3-110.3,166.9C1250.4,1127.7,1178.6,1068.1,1171.8,1019.4z M1425,275.1h25c14.5,0,27.1-10.4,29.9-24.7
					c7-35.8,38.6-61.8,75.1-61.8c36.6,0,68.2,26,75.1,61.8c2.8,14.3,15.4,24.7,29.9,24.7h25c21.8,0,42.2,8.5,57.6,24
					c15.3,15.4,24,36.1,24.3,58.1c0.8,49.1,3.2,118.1,4.3,190.8c-127.3,43.9-275.4-68.6-430.6-39.4c0.2-18.3,0.4-35.9,0.6-52.3h51.3
					c5.5,0,10-4.5,10-10s-4.5-10-10-10h-51c0.4-25.2,0.8-46.3,1.1-60.3h49.9c5.5,0,10-4.5,10-10s-4.5-10-10-10h-49.5
					C1343.6,311.3,1380.1,275.1,1425,275.1z M1496.8,860.6c-11.9,1-40.8,0.3-50.8-1.6c-0.7-5.2-0.6-15.9,0.2-27.6
					c10.6,0.2,29.1,0.5,51.7,0.8C1497.9,845.5,1497.5,855.3,1496.8,860.6z M1664.5,860.2c-18.1,1.7-88.9,0.9-104.2-2
					c-0.9-3.7-1.1-12.4,0.3-25.1c38.1,0.5,77.5,1,105.8,1.1C1666.5,847.5,1665.5,856.2,1664.5,860.2z M1767,740.3
					c-5.7,54.7-30.4,74-82,74c-65.4,0-247.5-3-248.1-3c-57.7,0-91.1-37.5-93.9-88.8c-0.4-7.8-0.8-16.2-1.1-25.3h50.6
					c5.5,0,10-4.5,10-10s-4.5-10-10-10h-51.2c-0.5-18.7-0.7-39.1-0.9-60.3h52.1c5.5,0,10-4.5,10-10s-4.5-10-10-10h-52.2
					c-0.1-20,0-40.3,0.1-60.3h52.1c5.5,0,10-4.5,10-10c0-1-0.1-1.9-0.4-2.8c128.6,2.9,253.1,81.1,369.4,45.2
					C1772.2,634,1771.5,697.3,1767,740.3z"/>
			</g>
		</g>
	</g>
</g>
</svg>
